<?xml version="1.0" encoding="iso-8859-1"?>
<!-- Generator: Adobe Illustrator 19.0.0, SVG Export Plug-In . SVG Version: 6.00 Build 0)  -->
<svg version="1.1" id="Capa_1" xmlns="http://www.w3.org/2000/svg" xmlns:xlink="http://www.w3.org/1999/xlink" x="0px" y="0px"
	 viewBox="0 0 480 480" style="enable-background:new 0 0 480 480;" xml:space="preserve">
<path style="fill:#737373;" d="M40,151.999h400v328H40V151.999z"/>
<path style="fill:#DE4C3C;" d="M392,431.999H88v-80l32-16h240l32,16V431.999z"/>
<path style="fill:#D64333;" d="M332.672,335.999c-53.194,41.918-113.191,74.39-177.376,96H392v-80l-32-16H332.672z"/>
<path style="fill:#4398D1;" d="M8,151.999h32v328H8V151.999z"/>
<path style="fill:#3E8CC7;" d="M440,151.999h32v328h-32V151.999z"/>
<path style="fill:#4398D1;" d="M472,151.999H8v-64l232-80l232,80V151.999z"/>
<path style="fill:#87CED9;" d="M360,335.999H120l27.576-55.152c2.71-5.422,8.25-8.848,14.312-8.848h156.224
	c6.062,0,11.603,3.426,14.312,8.848L360,335.999z"/>
<g>
	<path style="fill:#5E5E5F;" d="M88,431.999h48l0,0v32c0,4.418-3.582,8-8,8H96c-4.418,0-8-3.582-8-8V431.999L88,431.999z"/>
	<path style="fill:#5E5E5F;" d="M344,431.999h48l0,0v32c0,4.418-3.582,8-8,8h-32c-4.418,0-8-3.582-8-8V431.999L344,431.999z"/>
</g>
<g>
	<path style="fill:#DEDEDE;" d="M128,367.999h24c4.418,0,8,3.582,8,8v16c0,4.418-3.582,8-8,8h-24c-4.418,0-8-3.582-8-8v-16
		C120,371.58,123.582,367.999,128,367.999z"/>
	<path style="fill:#DEDEDE;" d="M328,367.999h24c4.418,0,8,3.582,8,8v16c0,4.418-3.582,8-8,8h-24c-4.418,0-8-3.582-8-8v-16
		C320,371.58,323.582,367.999,328,367.999z"/>
	<path style="fill:#DEDEDE;" d="M40,151.999h400v64H40V151.999z"/>
</g>
<path style="fill:#BF362C;" d="M200,367.999h80c4.418,0,8,3.582,8,8v16c0,4.418-3.582,8-8,8h-80c-4.418,0-8-3.582-8-8v-16
	C192,371.58,195.582,367.999,200,367.999z"/>
<path style="fill:#C7C7C7;" d="M40,175.999h400v16H40V175.999z"/>
<path style="fill:#71C4D1;" d="M332.424,280.847c-2.71-5.422-8.25-8.848-14.312-8.848H288l-64,64h136L332.424,280.847z"/>
<g>
	<path style="fill:#565657;" d="M88,431.999h48v16H88V431.999z"/>
	<path style="fill:#565657;" d="M344,431.999h48v16h-48V431.999z"/>
</g>
<path style="fill:#3E8CC7;" d="M472,87.999L353.496,47.135c-48.668,42.512-103.18,77.826-161.872,104.864H472V87.999z"/>
<path d="M474.608,80.439l-232-80c-1.69-0.583-3.526-0.583-5.216,0l-232,80C2.166,81.551,0.001,84.587,0,87.999v384
	c0,4.418,3.582,8,8,8h40c4.418,0,8-3.582,8-8v-248h368v248c0,4.418,3.582,8,8,8h40c4.418,0,8-3.582,8-8v-384
	C479.999,84.587,477.834,81.551,474.608,80.439z M40,215.999v248H16v-304h24V215.999z M424,207.999H56v-16h368V207.999z
	 M424,175.999H56v-16h368V175.999z M464,463.999h-24v-304h24V463.999z M464,143.999H16V93.703l224-77.24l224,77.24V143.999z"/>
<path d="M352,479.999h32c8.837,0,16-7.163,16-16v-112c0.017-3.047-1.699-5.838-4.424-7.2l-29.6-14.8l-26.4-52.8
	c-4.061-8.125-12.381-13.242-21.464-13.2H161.888c-9.098-0.03-17.421,5.114-21.464,13.264l-26.4,52.8l-29.6,14.8
	c-2.705,1.352-4.416,4.112-4.424,7.136v112c0,8.837,7.163,16,16,16h32c8.837,0,16-7.163,16-16v-24h192v24
	C336,472.835,343.163,479.999,352,479.999L352,479.999z M384,463.999h-32v-24h32V463.999z M154.736,284.423
	c1.345-2.718,4.119-4.434,7.152-4.424h156.224c3.033-0.01,5.807,1.706,7.152,4.424l21.792,43.576H132.944L154.736,284.423z
	 M128,463.999H96v-24h32V463.999z M136,423.999H96v-67.056l25.888-12.944h236.224L384,356.943v67.056H136z"/>
<path d="M152,359.999h-24c-8.837,0-16,7.163-16,16v16c0,8.837,7.163,16,16,16h24c8.837,0,16-7.163,16-16v-16
	C168,367.162,160.837,359.999,152,359.999z M128,391.999v-16h24v16H128z"/>
<path d="M368,391.999v-16c0-8.837-7.163-16-16-16h-24c-8.837,0-16,7.163-16,16v16c0,8.837,7.163,16,16,16h24
	C360.837,407.999,368,400.835,368,391.999z M328,375.999h24v16h-24V375.999z"/>
<path d="M280,359.999h-80c-8.837,0-16,7.163-16,16v16c0,8.837,7.163,16,16,16h80c8.837,0,16-7.163,16-16v-16
	C296,367.162,288.837,359.999,280,359.999z M200,391.999v-16h80v16H200z"/>
<g>
</g>
<g>
</g>
<g>
</g>
<g>
</g>
<g>
</g>
<g>
</g>
<g>
</g>
<g>
</g>
<g>
</g>
<g>
</g>
<g>
</g>
<g>
</g>
<g>
</g>
<g>
</g>
<g>
</g>
</svg>
